<?xml version="1.0" standalone="no"?>
<!DOCTYPE svg PUBLIC "-//W3C//DTD SVG 20010904//EN"
 "http://www.w3.org/TR/2001/REC-SVG-20010904/DTD/svg10.dtd">
<svg version="1.0" xmlns="http://www.w3.org/2000/svg"
 width="1052.000000pt" height="1064.000000pt" viewBox="0 0 1052.000000 1064.000000"
 preserveAspectRatio="xMidYMid meet">

<g transform="translate(0.000000,1064.000000) scale(0.100000,-0.100000)"
fill="#000000" stroke="none">
<path d="M6480 9638 c-457 -37 -1016 -281 -1559 -677 -268 -197 -691 -594
-865 -813 -90 -113 -325 -450 -404 -578 -187 -302 -367 -722 -456 -1060 -91
-347 -124 -757 -82 -1031 57 -372 185 -637 421 -874 226 -228 456 -333 883
-404 51 -8 53 -8 67 19 21 40 50 116 116 305 53 150 81 232 134 405 27 88 114
437 144 580 48 225 71 408 71 565 0 218 -35 336 -114 384 -26 17 -50 21 -112
21 -101 0 -219 -29 -484 -118 -237 -80 -337 -108 -347 -98 -12 12 15 47 156
203 187 206 575 591 701 694 356 290 608 439 908 535 97 31 270 64 336 64 117
0 210 -50 252 -137 76 -154 27 -400 -194 -988 -113 -303 -153 -439 -272 -945
-60 -256 -123 -521 -140 -590 -54 -217 -100 -523 -100 -666 0 -54 12 -56 98
-14 34 17 65 30 67 30 3 0 69 32 147 71 355 176 613 350 950 638 121 103 432
423 547 563 408 496 707 1053 862 1608 5 19 23 107 39 195 17 88 35 176 40
195 22 81 28 484 10 605 -5 33 -16 105 -25 160 -31 205 -105 397 -219 568
-157 238 -374 414 -626 508 -163 61 -220 69 -505 75 -143 2 -280 6 -305 7 -25
1 -88 -1 -140 -5z m347 -346 c159 -83 209 -271 137 -521 -116 -404 -530 -788
-857 -794 -109 -3 -162 17 -228 82 -76 77 -99 138 -99 270 0 163 52 322 158
486 153 236 360 409 572 480 99 33 250 32 317 -3z"/>
<path d="M1042 2599 c-13 -40 -24 -78 -107 -399 -78 -302 -116 -445 -154 -578
l-29 -102 186 2 186 3 7 30 c17 73 76 290 143 525 77 269 142 528 134 536 -3
2 -84 7 -180 11 l-175 6 -11 -34z"/>
<path d="M2061 2620 c-76 -11 -190 -44 -243 -71 -101 -51 -210 -132 -253 -186
-103 -130 -181 -350 -172 -488 4 -77 38 -173 78 -223 33 -42 104 -79 196 -103
102 -26 333 -29 476 -5 224 37 375 147 477 345 l20 41 -190 0 -190 0 -19 -37
c-23 -46 -83 -104 -131 -128 -40 -21 -139 -30 -204 -21 -159 24 -194 240 -75
459 68 126 183 207 306 215 111 7 153 -20 177 -114 l12 -47 184 -1 185 -1 -1
66 c-1 131 -85 236 -223 280 -76 24 -299 34 -410 19z"/>
<path d="M2848 2163 c-64 -258 -123 -497 -131 -533 -8 -36 -18 -72 -22 -81 -8
-21 48 -29 210 -29 l123 0 11 28 c17 41 113 382 180 639 92 350 100 379 110
406 5 14 7 28 4 31 -4 3 -88 6 -188 6 l-182 0 -115 -467z"/>
<path d="M3978 2619 c-105 -13 -197 -46 -311 -112 -65 -39 -110 -74 -139 -109
-24 -28 -58 -65 -76 -82 -39 -38 -93 -170 -127 -313 -23 -98 -24 -103 -8 -180
8 -43 21 -90 29 -104 25 -49 89 -102 174 -143 l84 -40 191 -4 c231 -4 353 15
475 74 98 48 200 150 253 252 l38 72 -89 0 c-49 0 -129 3 -179 6 l-90 7 -33
-48 c-86 -125 -203 -179 -331 -154 -88 17 -112 36 -143 115 -26 64 -27 73 -17
125 18 92 67 225 100 273 39 56 91 98 172 136 77 36 152 40 216 11 49 -23 69
-50 78 -110 7 -42 8 -43 37 -37 17 3 100 6 186 6 l155 0 -6 65 c-11 120 -60
201 -148 245 -110 56 -279 73 -491 49z"/>
<path d="M4895 2618 c-2 -7 -9 -31 -14 -53 -5 -22 -46 -175 -90 -340 -100
-367 -181 -678 -181 -692 0 -8 57 -12 179 -12 l179 -1 11 32 c11 36 124 456
201 748 27 102 58 214 69 250 12 36 21 68 21 73 0 4 -83 7 -185 7 -140 0 -187
-3 -190 -12z"/>
<path d="M5830 2614 c0 -14 -208 -866 -245 -1005 -27 -101 -60 -92 313 -86
449 7 512 19 634 127 30 26 59 66 80 107 29 60 33 76 33 156 l0 89 -41 37
c-25 22 -59 40 -85 46 -34 8 -44 15 -44 30 0 20 4 22 93 45 52 13 113 72 148
143 19 37 25 65 26 126 l2 79 -40 37 c-21 21 -56 48 -76 61 l-38 24 -380 0
c-338 0 -380 -2 -380 -16z m588 -163 c29 -13 57 -32 62 -42 34 -62 -14 -151
-101 -189 -48 -20 -74 -24 -230 -28 -108 -3 -179 -1 -182 5 -6 9 36 214 53
257 7 20 15 21 176 21 157 0 173 -2 222 -24z m-88 -451 c48 -25 60 -45 60
-105 0 -75 -44 -142 -117 -179 -26 -13 -68 -16 -233 -16 -196 0 -200 0 -200
21 0 11 16 83 37 160 l36 139 189 0 c169 0 193 -2 228 -20z"/>
<path d="M8975 2264 c-54 -203 -118 -443 -141 -534 -23 -91 -46 -175 -49 -187
-7 -23 -7 -23 104 -23 81 0 112 3 115 13 2 6 15 62 30 122 43 181 68 265 77
265 5 0 38 -44 73 -97 35 -54 90 -133 122 -175 33 -43 67 -89 76 -102 16 -23
21 -23 168 -25 82 -1 150 2 150 7 0 5 -9 17 -21 28 -11 10 -66 82 -122 159
-56 77 -118 163 -139 190 -21 28 -38 55 -38 61 0 6 17 20 38 32 20 12 82 56
137 97 55 41 130 95 166 120 117 79 117 102 1 85 -39 -5 -91 -7 -115 -4 -42 6
-48 4 -102 -40 -31 -26 -76 -59 -99 -73 -22 -14 -66 -45 -96 -67 -156 -118
-180 -136 -184 -136 -9 0 90 371 149 560 13 41 23 76 22 77 -1 1 -52 5 -113 9
l-110 7 -99 -369z"/>
<path d="M7138 2294 c-37 -7 -85 -22 -108 -34 -43 -22 -170 -140 -170 -159 0
-7 33 -11 100 -11 91 0 103 2 123 23 65 63 86 75 151 82 56 6 70 4 104 -15 47
-26 62 -55 62 -115 l0 -43 -97 -7 c-309 -21 -472 -60 -529 -128 -32 -38 -68
-117 -78 -169 -9 -51 10 -116 43 -147 34 -32 144 -71 197 -71 96 1 210 38 296
98 45 31 78 41 78 23 0 -5 -6 -27 -14 -49 -8 -22 -12 -43 -9 -46 8 -8 151 -7
181 0 12 4 22 13 22 20 0 8 20 85 45 171 25 86 51 191 56 232 6 42 15 84 20
93 33 63 -21 188 -99 227 -82 41 -239 52 -374 25z m212 -424 c0 -37 -47 -125
-90 -167 -58 -57 -118 -76 -222 -71 -69 3 -82 6 -99 27 -27 33 -25 94 5 138
50 73 103 89 299 92 100 1 107 0 107 -19z"/>
<path d="M8325 2295 c-78 -21 -102 -32 -177 -81 -39 -25 -72 -43 -74 -41 -2 2
4 25 13 50 16 43 16 48 2 63 -14 13 -30 14 -109 7 -108 -9 -94 8 -130 -163
-15 -72 -106 -452 -141 -590 -6 -22 174 -22 195 0 8 8 31 71 51 140 20 69 43
141 50 160 7 19 13 46 13 60 3 97 65 176 188 236 112 56 192 48 240 -23 44
-66 40 -108 -42 -436 -19 -77 -32 -142 -29 -147 2 -4 47 -8 99 -9 l95 -2 11
43 c6 24 26 95 44 158 37 125 71 268 81 340 8 55 -24 138 -72 185 -58 58 -196
81 -308 50z"/>
</g>
</svg>
